<svg xmlns="http://www.w3.org/2000/svg" viewBox="0 0 90.71 90.71"><title>comment</title><circle cx="45.35" cy="45.35" r="45.35" style="fill:#3e3a39"/><path d="M39.49,71.86V70.12a13,13,0,0,0,6.31-4.17A9.52,9.52,0,0,0,48,60a2.16,2.16,0,0,0-.36-1.27.74.74,0,0,0-.55-.36,5.75,5.75,0,0,0-1.9.79,3.33,3.33,0,0,1-1.5.36,4.17,4.17,0,0,1-3.08-1.15,4.28,4.28,0,0,1-1.15-3.16A4.38,4.38,0,0,1,41,51.85a5.1,5.1,0,0,1,3.62-1.38,6.1,6.1,0,0,1,4.65,2.27,8.7,8.7,0,0,1,2,6,11.82,11.82,0,0,1-2.83,7.57Q45.62,69.84,39.49,71.86ZM45,21a4.27,4.27,0,0,1,3.1,1.27,4.16,4.16,0,0,1,1.29,3.08,4.39,4.39,0,1,1-8.78,0,4.17,4.17,0,0,1,1.29-3.08A4.26,4.26,0,0,1,45,21Z" style="fill:#fff"/></svg>