<?xml version="1.0" encoding="utf-8"?>
<!-- Generator: Adobe Illustrator 21.1.0, SVG Export Plug-In . SVG Version: 6.00 Build 0)  -->
<svg version="1.1" id="图层_1" xmlns="http://www.w3.org/2000/svg" xmlns:xlink="http://www.w3.org/1999/xlink" x="0px" y="0px"
	 viewBox="0 0 40 40" style="enable-background:new 0 0 40 40;" xml:space="preserve">
<style type="text/css">
	.st0{fill:#5545D7;}
</style>
<title>logo</title>
<g>
	<g>
		<g>
			<path class="st0" d="M19.7,20.9l3.2-1.4c-0.6-1.3-1.8-2.1-3.2-2.1c-1.9,0-3.5,1.6-3.5,3.5s1.6,3.5,3.5,3.5s3.5-1.6,3.5-3.5H19.7z
				"/>
		</g>
	</g>
	<g>
		<g>
			<path class="st0" d="M20,0C20,0,20,0,20,0C8.9,0.1-0.1,9.2,0,20.3c0,0,0,0,0,0c0,9.1,6,17.1,14.8,19.6V26.8
				c-3.2-2.8-3.5-7.7-0.6-10.9c2.8-3.2,7.7-3.5,10.9-0.6c1.6,1.5,2.6,3.6,2.6,5.8c0,2.4-1.1,4.7-3,6.2V40c9-2.3,15.4-10.4,15.3-19.7
				C40.1,9.2,31.1,0.1,20,0z"/>
		</g>
	</g>
	<g>
		<g>
			<path class="st0" d="M19.7,26.3c-1.4,0-2.6,1.2-2.6,2.6v8.4c0,1.4,1.2,2.6,2.6,2.6c1.4,0,2.6-1.2,2.6-2.6v-8.4
				C22.3,27.4,21.1,26.3,19.7,26.3z"/>
		</g>
	</g>
</g>
</svg>
